<mxfile host="app.diagrams.net" modified="2024-03-22T07:20:45.497Z" agent="Mozilla/5.0 (Windows NT 10.0; Win64; x64) AppleWebKit/537.36 (KHTML, like Gecko) Chrome/123.0.0.0 Safari/537.36" etag="7k8xpBvPCOTkF9c_N6Ur" version="24.0.7" type="device">
  <diagram id="C5RBs43oDa-KdzZeNtuy" name="Page-1">
    <mxGraphModel dx="1221" dy="618" grid="1" gridSize="10" guides="1" tooltips="1" connect="1" arrows="0" fold="1" page="1" pageScale="1" pageWidth="827" pageHeight="1169" math="0" shadow="0">
      <root>
        <mxCell id="WIyWlLk6GJQsqaUBKTNV-0" />
        <mxCell id="WIyWlLk6GJQsqaUBKTNV-1" parent="WIyWlLk6GJQsqaUBKTNV-0" />
        <mxCell id="2EArhs2tTi93RpE7Wd-O-36" value="" style="rounded=0;whiteSpace=wrap;html=1;" parent="WIyWlLk6GJQsqaUBKTNV-1" vertex="1">
          <mxGeometry x="480" y="810" width="180" height="100" as="geometry" />
        </mxCell>
        <mxCell id="2EArhs2tTi93RpE7Wd-O-0" value="" style="rounded=0;whiteSpace=wrap;html=1;" parent="WIyWlLk6GJQsqaUBKTNV-1" vertex="1">
          <mxGeometry x="40" y="60" width="220" height="290" as="geometry" />
        </mxCell>
        <mxCell id="2EArhs2tTi93RpE7Wd-O-1" value="" style="rounded=0;whiteSpace=wrap;html=1;" parent="WIyWlLk6GJQsqaUBKTNV-1" vertex="1">
          <mxGeometry x="324" y="120" width="180" height="170" as="geometry" />
        </mxCell>
        <mxCell id="2EArhs2tTi93RpE7Wd-O-2" value="RAM" style="text;html=1;align=center;verticalAlign=middle;whiteSpace=wrap;rounded=0;" parent="WIyWlLk6GJQsqaUBKTNV-1" vertex="1">
          <mxGeometry x="374" y="80" width="60" height="30" as="geometry" />
        </mxCell>
        <mxCell id="2EArhs2tTi93RpE7Wd-O-3" value="HDD" style="text;html=1;align=center;verticalAlign=middle;whiteSpace=wrap;rounded=0;" parent="WIyWlLk6GJQsqaUBKTNV-1" vertex="1">
          <mxGeometry x="190" y="20" width="60" height="30" as="geometry" />
        </mxCell>
        <mxCell id="2EArhs2tTi93RpE7Wd-O-4" value="LOL" style="rounded=0;whiteSpace=wrap;html=1;" parent="WIyWlLk6GJQsqaUBKTNV-1" vertex="1">
          <mxGeometry x="50" y="140" width="120" height="60" as="geometry" />
        </mxCell>
        <mxCell id="2EArhs2tTi93RpE7Wd-O-6" value="LostArk" style="rounded=0;whiteSpace=wrap;html=1;" parent="WIyWlLk6GJQsqaUBKTNV-1" vertex="1">
          <mxGeometry x="50" y="70" width="120" height="60" as="geometry" />
        </mxCell>
        <mxCell id="2EArhs2tTi93RpE7Wd-O-7" value="CPU" style="whiteSpace=wrap;html=1;aspect=fixed;" parent="WIyWlLk6GJQsqaUBKTNV-1" vertex="1">
          <mxGeometry x="740" y="165" width="80" height="80" as="geometry" />
        </mxCell>
        <mxCell id="2EArhs2tTi93RpE7Wd-O-8" value="LOL" style="rounded=0;whiteSpace=wrap;html=1;" parent="WIyWlLk6GJQsqaUBKTNV-1" vertex="1">
          <mxGeometry x="334" y="130" width="120" height="60" as="geometry" />
        </mxCell>
        <mxCell id="2EArhs2tTi93RpE7Wd-O-10" value="L1" style="rounded=0;whiteSpace=wrap;html=1;" parent="WIyWlLk6GJQsqaUBKTNV-1" vertex="1">
          <mxGeometry x="680" y="150" width="20" height="90" as="geometry" />
        </mxCell>
        <mxCell id="2EArhs2tTi93RpE7Wd-O-11" value="Cache" style="text;html=1;align=center;verticalAlign=middle;whiteSpace=wrap;rounded=0;" parent="WIyWlLk6GJQsqaUBKTNV-1" vertex="1">
          <mxGeometry x="610" y="110" width="60" height="30" as="geometry" />
        </mxCell>
        <mxCell id="2EArhs2tTi93RpE7Wd-O-13" value="공간 지역성&lt;div&gt;시간 지역성&lt;/div&gt;" style="text;html=1;align=center;verticalAlign=middle;whiteSpace=wrap;rounded=0;" parent="WIyWlLk6GJQsqaUBKTNV-1" vertex="1">
          <mxGeometry x="570" width="190" height="80" as="geometry" />
        </mxCell>
        <mxCell id="2EArhs2tTi93RpE7Wd-O-14" value="L2" style="rounded=0;whiteSpace=wrap;html=1;" parent="WIyWlLk6GJQsqaUBKTNV-1" vertex="1">
          <mxGeometry x="630" y="150" width="20" height="90" as="geometry" />
        </mxCell>
        <mxCell id="2EArhs2tTi93RpE7Wd-O-15" value="L3" style="rounded=0;whiteSpace=wrap;html=1;" parent="WIyWlLk6GJQsqaUBKTNV-1" vertex="1">
          <mxGeometry x="580" y="150" width="20" height="90" as="geometry" />
        </mxCell>
        <mxCell id="2EArhs2tTi93RpE7Wd-O-18" value="12&lt;div&gt;= 1x10&lt;sup&gt;1&lt;/sup&gt; + 2x10&lt;sup&gt;0&lt;/sup&gt;&lt;/div&gt;" style="text;html=1;align=center;verticalAlign=middle;whiteSpace=wrap;rounded=0;" parent="WIyWlLk6GJQsqaUBKTNV-1" vertex="1">
          <mxGeometry x="90" y="380" width="140" height="50" as="geometry" />
        </mxCell>
        <mxCell id="2EArhs2tTi93RpE7Wd-O-19" value="1100&lt;sub&gt;2&lt;/sub&gt;&lt;div&gt;= 1x2&lt;sup&gt;3&lt;/sup&gt; + 1x2&lt;span style=&quot;font-size: 10px;&quot;&gt;&lt;sup&gt;2&lt;/sup&gt;&lt;/span&gt;&amp;nbsp;+ 0x2&lt;span style=&quot;font-size: 10px;&quot;&gt;&lt;sup&gt;1&lt;/sup&gt;&lt;/span&gt;&amp;nbsp;+ 0x2&lt;sup&gt;0&lt;/sup&gt;&lt;/div&gt;" style="text;html=1;align=center;verticalAlign=middle;whiteSpace=wrap;rounded=0;" parent="WIyWlLk6GJQsqaUBKTNV-1" vertex="1">
          <mxGeometry x="90" y="440" width="170" height="50" as="geometry" />
        </mxCell>
        <mxCell id="2EArhs2tTi93RpE7Wd-O-21" value="C&lt;span style=&quot;font-size: 10px;&quot;&gt;&lt;sub&gt;16&lt;/sub&gt;&lt;/span&gt;&lt;div&gt;&lt;span style=&quot;font-size: 8.33333px;&quot;&gt;=&amp;nbsp;&lt;/span&gt;12 x 16&lt;sup&gt;0&lt;/sup&gt;&lt;/div&gt;" style="text;html=1;align=center;verticalAlign=middle;whiteSpace=wrap;rounded=0;" parent="WIyWlLk6GJQsqaUBKTNV-1" vertex="1">
          <mxGeometry x="90" y="510" width="170" height="50" as="geometry" />
        </mxCell>
        <mxCell id="2EArhs2tTi93RpE7Wd-O-22" value="0x1234AC43" style="text;html=1;align=center;verticalAlign=middle;whiteSpace=wrap;rounded=0;" parent="WIyWlLk6GJQsqaUBKTNV-1" vertex="1">
          <mxGeometry x="80" y="585" width="190" height="40" as="geometry" />
        </mxCell>
        <mxCell id="2EArhs2tTi93RpE7Wd-O-25" value="Multi-Threading" style="rounded=1;whiteSpace=wrap;html=1;fillColor=#dae8fc;strokeColor=#6c8ebf;" parent="WIyWlLk6GJQsqaUBKTNV-1" vertex="1">
          <mxGeometry x="20" y="690" width="120" height="60" as="geometry" />
        </mxCell>
        <mxCell id="2EArhs2tTi93RpE7Wd-O-27" value="Code" style="rounded=1;whiteSpace=wrap;html=1;" parent="WIyWlLk6GJQsqaUBKTNV-1" vertex="1">
          <mxGeometry x="100" y="770" width="120" height="60" as="geometry" />
        </mxCell>
        <mxCell id="2EArhs2tTi93RpE7Wd-O-28" value="Data" style="rounded=1;whiteSpace=wrap;html=1;" parent="WIyWlLk6GJQsqaUBKTNV-1" vertex="1">
          <mxGeometry x="100" y="840" width="120" height="60" as="geometry" />
        </mxCell>
        <mxCell id="2EArhs2tTi93RpE7Wd-O-29" value="Heap" style="rounded=1;whiteSpace=wrap;html=1;" parent="WIyWlLk6GJQsqaUBKTNV-1" vertex="1">
          <mxGeometry x="100" y="910" width="120" height="60" as="geometry" />
        </mxCell>
        <mxCell id="2EArhs2tTi93RpE7Wd-O-30" value="Stack" style="rounded=1;whiteSpace=wrap;html=1;" parent="WIyWlLk6GJQsqaUBKTNV-1" vertex="1">
          <mxGeometry x="100" y="980" width="120" height="60" as="geometry" />
        </mxCell>
        <mxCell id="2EArhs2tTi93RpE7Wd-O-31" value="" style="shape=flexArrow;endArrow=classic;html=1;rounded=0;" parent="WIyWlLk6GJQsqaUBKTNV-1" edge="1">
          <mxGeometry width="50" height="50" relative="1" as="geometry">
            <mxPoint x="60" y="790" as="sourcePoint" />
            <mxPoint x="60" y="1020" as="targetPoint" />
          </mxGeometry>
        </mxCell>
        <mxCell id="2EArhs2tTi93RpE7Wd-O-33" value="" style="shape=parallelogram;perimeter=parallelogramPerimeter;whiteSpace=wrap;html=1;fixedSize=1;fillColor=#ffe6cc;strokeColor=#d79b00;size=40;" parent="WIyWlLk6GJQsqaUBKTNV-1" vertex="1">
          <mxGeometry x="470" y="750" width="170" height="60" as="geometry" />
        </mxCell>
        <mxCell id="2EArhs2tTi93RpE7Wd-O-35" value="" style="endArrow=none;html=1;rounded=0;entryX=1;entryY=0;entryDx=0;entryDy=0;" parent="WIyWlLk6GJQsqaUBKTNV-1" target="2EArhs2tTi93RpE7Wd-O-33" edge="1">
          <mxGeometry width="50" height="50" relative="1" as="geometry">
            <mxPoint x="660" y="810" as="sourcePoint" />
            <mxPoint x="540" y="980" as="targetPoint" />
          </mxGeometry>
        </mxCell>
        <mxCell id="2EArhs2tTi93RpE7Wd-O-37" value="Luke&#39;s&lt;div&gt;Coffee&lt;/div&gt;" style="text;html=1;align=center;verticalAlign=middle;whiteSpace=wrap;rounded=0;" parent="WIyWlLk6GJQsqaUBKTNV-1" vertex="1">
          <mxGeometry x="490" y="750" width="100" height="50" as="geometry" />
        </mxCell>
        <mxCell id="2EArhs2tTi93RpE7Wd-O-38" value="Server" style="shape=umlActor;verticalLabelPosition=bottom;verticalAlign=top;html=1;outlineConnect=0;" parent="WIyWlLk6GJQsqaUBKTNV-1" vertex="1">
          <mxGeometry x="570" y="830" width="30" height="60" as="geometry" />
        </mxCell>
        <mxCell id="2EArhs2tTi93RpE7Wd-O-39" value="Client" style="shape=umlActor;verticalLabelPosition=bottom;verticalAlign=top;html=1;outlineConnect=0;fillColor=#f8cecc;strokeColor=#b85450;" parent="WIyWlLk6GJQsqaUBKTNV-1" vertex="1">
          <mxGeometry x="525" y="830" width="30" height="60" as="geometry" />
        </mxCell>
        <mxCell id="2EArhs2tTi93RpE7Wd-O-40" value="Client" style="shape=umlActor;verticalLabelPosition=bottom;verticalAlign=top;html=1;outlineConnect=0;fillColor=#f8cecc;strokeColor=#b85450;" parent="WIyWlLk6GJQsqaUBKTNV-1" vertex="1">
          <mxGeometry x="525" y="920" width="30" height="60" as="geometry" />
        </mxCell>
        <mxCell id="2EArhs2tTi93RpE7Wd-O-41" value="Barista" style="shape=umlActor;verticalLabelPosition=bottom;verticalAlign=top;html=1;outlineConnect=0;" parent="WIyWlLk6GJQsqaUBKTNV-1" vertex="1">
          <mxGeometry x="650" y="810" width="30" height="60" as="geometry" />
        </mxCell>
        <mxCell id="2EArhs2tTi93RpE7Wd-O-42" value="Server" style="shape=umlActor;verticalLabelPosition=bottom;verticalAlign=top;html=1;outlineConnect=0;" parent="WIyWlLk6GJQsqaUBKTNV-1" vertex="1">
          <mxGeometry x="480" y="860" width="30" height="60" as="geometry" />
        </mxCell>
        <mxCell id="2EArhs2tTi93RpE7Wd-O-43" value="Server" style="shape=umlActor;verticalLabelPosition=bottom;verticalAlign=top;html=1;outlineConnect=0;" parent="WIyWlLk6GJQsqaUBKTNV-1" vertex="1">
          <mxGeometry x="610" y="870" width="30" height="60" as="geometry" />
        </mxCell>
        <mxCell id="2EArhs2tTi93RpE7Wd-O-44" value="Stack" style="rounded=1;whiteSpace=wrap;html=1;" parent="WIyWlLk6GJQsqaUBKTNV-1" vertex="1">
          <mxGeometry x="230" y="980" width="120" height="60" as="geometry" />
        </mxCell>
        <mxCell id="2EArhs2tTi93RpE7Wd-O-45" value="CPU bound Task" style="text;html=1;align=center;verticalAlign=middle;whiteSpace=wrap;rounded=0;" parent="WIyWlLk6GJQsqaUBKTNV-1" vertex="1">
          <mxGeometry x="480" y="1020" width="60" height="50" as="geometry" />
        </mxCell>
        <mxCell id="2EArhs2tTi93RpE7Wd-O-46" value="I/O&lt;div&gt;bound Task&lt;/div&gt;" style="text;html=1;align=center;verticalAlign=middle;whiteSpace=wrap;rounded=0;" parent="WIyWlLk6GJQsqaUBKTNV-1" vertex="1">
          <mxGeometry x="555" y="1020" width="60" height="50" as="geometry" />
        </mxCell>
        <mxCell id="2EArhs2tTi93RpE7Wd-O-47" value="Thread 는&amp;nbsp;&lt;div&gt;Core 수에 맞게 하는것이 이상적&lt;/div&gt;" style="text;html=1;align=center;verticalAlign=middle;whiteSpace=wrap;rounded=0;" parent="WIyWlLk6GJQsqaUBKTNV-1" vertex="1">
          <mxGeometry x="450" y="1080" width="90" height="50" as="geometry" />
        </mxCell>
        <mxCell id="2EArhs2tTi93RpE7Wd-O-48" value="대기하는 로직.&lt;div&gt;필요할때마다&amp;nbsp; Thread 생성&lt;/div&gt;" style="text;html=1;align=center;verticalAlign=middle;whiteSpace=wrap;rounded=0;" parent="WIyWlLk6GJQsqaUBKTNV-1" vertex="1">
          <mxGeometry x="570" y="1080" width="90" height="50" as="geometry" />
        </mxCell>
        <mxCell id="2EArhs2tTi93RpE7Wd-O-49" value="Core" style="whiteSpace=wrap;html=1;aspect=fixed;" parent="WIyWlLk6GJQsqaUBKTNV-1" vertex="1">
          <mxGeometry x="840" y="1020" width="60" height="60" as="geometry" />
        </mxCell>
        <mxCell id="2EArhs2tTi93RpE7Wd-O-50" value="Schedular" style="text;html=1;align=center;verticalAlign=middle;whiteSpace=wrap;rounded=0;" parent="WIyWlLk6GJQsqaUBKTNV-1" vertex="1">
          <mxGeometry x="780" y="980" width="110" height="30" as="geometry" />
        </mxCell>
        <mxCell id="TqzJmQPPYu4ZV125POUB-9" value="Server1" style="shape=umlActor;verticalLabelPosition=bottom;verticalAlign=top;html=1;outlineConnect=0;" vertex="1" parent="WIyWlLk6GJQsqaUBKTNV-1">
          <mxGeometry x="1151" y="840" width="30" height="60" as="geometry" />
        </mxCell>
        <mxCell id="TqzJmQPPYu4ZV125POUB-10" value="Server2" style="shape=umlActor;verticalLabelPosition=bottom;verticalAlign=top;html=1;outlineConnect=0;" vertex="1" parent="WIyWlLk6GJQsqaUBKTNV-1">
          <mxGeometry x="1211" y="840" width="30" height="60" as="geometry" />
        </mxCell>
        <mxCell id="TqzJmQPPYu4ZV125POUB-12" value="" style="rounded=0;whiteSpace=wrap;html=1;" vertex="1" parent="WIyWlLk6GJQsqaUBKTNV-1">
          <mxGeometry x="1140" y="950" width="120" height="20" as="geometry" />
        </mxCell>
        <mxCell id="TqzJmQPPYu4ZV125POUB-13" value="Barista" style="shape=umlActor;verticalLabelPosition=bottom;verticalAlign=top;html=1;outlineConnect=0;" vertex="1" parent="WIyWlLk6GJQsqaUBKTNV-1">
          <mxGeometry x="1350" y="670" width="30" height="60" as="geometry" />
        </mxCell>
        <mxCell id="TqzJmQPPYu4ZV125POUB-11" value="Client" style="shape=umlActor;verticalLabelPosition=bottom;verticalAlign=top;html=1;outlineConnect=0;fillColor=#f8cecc;strokeColor=#b85450;" vertex="1" parent="WIyWlLk6GJQsqaUBKTNV-1">
          <mxGeometry x="1181" y="920" width="30" height="60" as="geometry" />
        </mxCell>
        <mxCell id="TqzJmQPPYu4ZV125POUB-14" value="주문할게여&lt;div&gt;1. Aspresso&lt;/div&gt;&lt;div&gt;2.Latte&lt;/div&gt;" style="shape=callout;whiteSpace=wrap;html=1;perimeter=calloutPerimeter;" vertex="1" parent="WIyWlLk6GJQsqaUBKTNV-1">
          <mxGeometry x="1256" y="900" width="120" height="80" as="geometry" />
        </mxCell>
        <mxCell id="TqzJmQPPYu4ZV125POUB-15" value="1.Aspresso&lt;div&gt;2.Latte&lt;/div&gt;" style="shape=note;whiteSpace=wrap;html=1;backgroundOutline=1;darkOpacity=0.05;size=17;" vertex="1" parent="WIyWlLk6GJQsqaUBKTNV-1">
          <mxGeometry x="1241" y="665" width="90" height="70" as="geometry" />
        </mxCell>
        <mxCell id="TqzJmQPPYu4ZV125POUB-16" value="&lt;div&gt;1.Latte&lt;/div&gt;" style="shape=note;whiteSpace=wrap;html=1;backgroundOutline=1;darkOpacity=0.05;size=17;" vertex="1" parent="WIyWlLk6GJQsqaUBKTNV-1">
          <mxGeometry x="1241" y="665" width="90" height="70" as="geometry" />
        </mxCell>
        <mxCell id="TqzJmQPPYu4ZV125POUB-17" value="RaceCondition&lt;div&gt;한 자원에 둘 이상의 쓰레드가 동시에 접근하여 쓰기/읽기를 하려는 상황&lt;/div&gt;&lt;div&gt;&lt;br&gt;&lt;/div&gt;&lt;div&gt;Synchronization (동기화)&lt;/div&gt;&lt;div&gt;(대기하면서) 자원의 이용가능 상태를 확인하고 접근함&lt;/div&gt;" style="text;html=1;align=center;verticalAlign=middle;whiteSpace=wrap;rounded=0;" vertex="1" parent="WIyWlLk6GJQsqaUBKTNV-1">
          <mxGeometry x="1450" y="670" width="300" height="110" as="geometry" />
        </mxCell>
        <mxCell id="TqzJmQPPYu4ZV125POUB-18" value="Toliet" style="rounded=0;whiteSpace=wrap;html=1;fillColor=#f8cecc;strokeColor=#b85450;" vertex="1" parent="WIyWlLk6GJQsqaUBKTNV-1">
          <mxGeometry x="1590" y="810" width="50" height="110" as="geometry" />
        </mxCell>
        <mxCell id="TqzJmQPPYu4ZV125POUB-21" value="Actor" style="shape=umlActor;verticalLabelPosition=bottom;verticalAlign=top;html=1;outlineConnect=0;" vertex="1" parent="WIyWlLk6GJQsqaUBKTNV-1">
          <mxGeometry x="1690" y="1070" width="30" height="60" as="geometry" />
        </mxCell>
        <mxCell id="TqzJmQPPYu4ZV125POUB-22" value="Actor" style="shape=umlActor;verticalLabelPosition=bottom;verticalAlign=top;html=1;outlineConnect=0;fillColor=#f8cecc;strokeColor=#b85450;" vertex="1" parent="WIyWlLk6GJQsqaUBKTNV-1">
          <mxGeometry x="1800" y="1075" width="30" height="60" as="geometry" />
        </mxCell>
        <mxCell id="TqzJmQPPYu4ZV125POUB-23" value="Actor" style="shape=umlActor;verticalLabelPosition=bottom;verticalAlign=top;html=1;outlineConnect=0;" vertex="1" parent="WIyWlLk6GJQsqaUBKTNV-1">
          <mxGeometry x="1540" y="910" width="30" height="60" as="geometry" />
        </mxCell>
        <mxCell id="TqzJmQPPYu4ZV125POUB-24" value="Semaphore : 여러 프로세스/쓰레드가 자원에 접근할 수 있는 최대 수에 따라 동기화하는 기법" style="text;html=1;align=center;verticalAlign=middle;whiteSpace=wrap;rounded=0;" vertex="1" parent="WIyWlLk6GJQsqaUBKTNV-1">
          <mxGeometry x="1790" y="810" width="280" height="50" as="geometry" />
        </mxCell>
        <mxCell id="TqzJmQPPYu4ZV125POUB-25" value="Mutex : 하나의 프로세스/쓰레드만 자원에 접근할 수 있도록 동기화하는 기법" style="text;html=1;align=center;verticalAlign=middle;whiteSpace=wrap;rounded=0;" vertex="1" parent="WIyWlLk6GJQsqaUBKTNV-1">
          <mxGeometry x="1790" y="875" width="280" height="50" as="geometry" />
        </mxCell>
        <mxCell id="TqzJmQPPYu4ZV125POUB-26" value="lock : 현재 어플리케이션 내에서만, 하나의 쓰레드만 자원에 접근할 수 있도록 동기화하는 기" style="text;html=1;align=center;verticalAlign=middle;whiteSpace=wrap;rounded=0;" vertex="1" parent="WIyWlLk6GJQsqaUBKTNV-1">
          <mxGeometry x="1788" y="935" width="280" height="50" as="geometry" />
        </mxCell>
        <mxCell id="TqzJmQPPYu4ZV125POUB-28" value="상호 배제 (Mutual exclusion)" style="text;html=1;align=center;verticalAlign=middle;whiteSpace=wrap;rounded=0;" vertex="1" parent="WIyWlLk6GJQsqaUBKTNV-1">
          <mxGeometry x="1850" y="720" width="150" height="50" as="geometry" />
        </mxCell>
        <mxCell id="TqzJmQPPYu4ZV125POUB-29" value="DeadLock - 둘 이상의 쓰레드가 접근하면 안되는 자원들에 의해 루틴들이 서로를 종료시키지 못하는 상태" style="text;html=1;align=center;verticalAlign=middle;whiteSpace=wrap;rounded=0;" vertex="1" parent="WIyWlLk6GJQsqaUBKTNV-1">
          <mxGeometry x="2150" y="800" width="310" height="50" as="geometry" />
        </mxCell>
      </root>
    </mxGraphModel>
  </diagram>
</mxfile>
